<?xml version="1.0" encoding="UTF-8" standalone="no"?>
<svg
   xmlns:osb="http://www.openswatchbook.org/uri/2009/osb"
   xmlns:dc="http://purl.org/dc/elements/1.1/"
   xmlns:cc="http://creativecommons.org/ns#"
   xmlns:rdf="http://www.w3.org/1999/02/22-rdf-syntax-ns#"
   xmlns:svg="http://www.w3.org/2000/svg"
   xmlns="http://www.w3.org/2000/svg"
   xmlns:xlink="http://www.w3.org/1999/xlink"
   xmlns:sodipodi="http://sodipodi.sourceforge.net/DTD/sodipodi-0.dtd"
   xmlns:inkscape="http://www.inkscape.org/namespaces/inkscape"
   id="svg6235"
   version="1.1"
   viewBox="0 0 210 297"
   height="297mm"
   width="210mm"
   sodipodi:docname="drawing.svg"
   inkscape:version="0.92.2 (30a58d1, 2017-08-07)">
  <sodipodi:namedview
     pagecolor="#ffffff"
     bordercolor="#666666"
     borderopacity="1"
     objecttolerance="10"
     gridtolerance="10"
     guidetolerance="10"
     inkscape:pageopacity="0"
     inkscape:pageshadow="2"
     inkscape:window-width="1920"
     inkscape:window-height="1025"
     id="namedview82"
     showgrid="false"
     inkscape:zoom="0.74653479"
     inkscape:cx="343.2695"
     inkscape:cy="561.25984"
     inkscape:window-x="0"
     inkscape:window-y="27"
     inkscape:window-maximized="1"
     inkscape:current-layer="svg6235" />
  <defs
     id="defs6229">
    <linearGradient
       gradientUnits="userSpaceOnUse"
       y2="84.221329"
       x2="181.48621"
       y1="84.221329"
       x1="160.15646"
       id="linearGradient2344-3-5-6-1"
       xlink:href="#linearGradient2342"
       gradientTransform="translate(-66.611588,3.0579118)" />
    <linearGradient
       osb:paint="solid"
       id="linearGradient2342">
      <stop
         id="stop2340"
         offset="0"
         style="stop-color:#7d863a;stop-opacity:1;" />
    </linearGradient>
  </defs>
  <metadata
     id="metadata6232">
    <rdf:RDF>
      <cc:Work
         rdf:about="">
        <dc:format>image/svg+xml</dc:format>
        <dc:type
           rdf:resource="http://purl.org/dc/dcmitype/StillImage" />
        <dc:title></dc:title>
      </cc:Work>
    </rdf:RDF>
  </metadata>
  <g
     id="layer1">
    <path
       transform="matrix(10.202434,0,0,10.024005,-208.28283,-115.02758)"
       d="M 29.205386,32.82874 C 27.843664,32.697804 21.31779,18.383141 22.112044,17.269323 c 0.794254,-1.113818 16.454053,0.391941 17.021521,1.636694 0.567467,1.244753 -8.566457,14.053658 -9.928179,13.922723 z"
       id="path2311-7-5-9-7"
       style="fill:url(#linearGradient2344-3-5-6-1);fill-opacity:1;fill-rule:evenodd;stroke:#aa4e3a;stroke-width:0.26499999;stroke-miterlimit:4;stroke-dasharray:none;stroke-opacity:0">
     /&gt;
  </path>
  </g>
  <path
     style="fill:#1a1a1a;fill-opacity:0;stroke:#aa4e3a;stroke-width:1.34163177;stroke-miterlimit:4;stroke-dasharray:none;stroke-opacity:0"
     d="m 172.01158,127.06415 c -43.20724,0.9885 -88.005581,0.21187 -128.949955,15.96177 -33.2927538,12.73867 -56.798009,46.10709 -57.496435,81.75876 -1.051884,43.01464 14.08023344,84.23134 27.236835,124.55908 38.152999,107.17976 85.580576,210.86271 136.686975,312.42573 31.22684,59.91614 62.52281,120.41367 103.62666,174.29512 19.91371,26.18039 48.4326,49.5852 82.86984,50.06932 39.09289,1.9097 72.03974,-23.54853 98.75297,-49.15697 56.47008,-55.54402 104.89652,-118.55812 152.93432,-181.34804 63.81203,-85.60097 125.85562,-172.99592 177.5796,-266.5492 18.38832,-35.6672 39.448,-74.37334 33.84181,-115.93734 C 794.79962,238.33294 767.37203,210.92237 735.7307,198.5036 684.02907,177.7417 628.45095,169.44466 573.80547,160.24611 456.20818,142.65119 337.56665,131.68782 218.72578,127.672 c -15.56731,-0.42907 -31.14079,-0.65962 -46.7142,-0.60785 z"
     id="path84"
     inkscape:connector-curvature="0"
     transform="scale(0.26458333)" />
  <path
     style="fill:#1a1a1a;fill-opacity:0;stroke:#aa4e3a;stroke-width:1.34163177;stroke-miterlimit:4;stroke-dasharray:none;stroke-opacity:0"
     d="m 172.01158,127.06415 c -43.20724,0.9885 -88.005581,0.21187 -128.949955,15.96177 -33.2927538,12.73867 -56.798009,46.10709 -57.496435,81.75876 -1.051884,43.01464 14.08023344,84.23134 27.236835,124.55908 38.152999,107.17976 85.580576,210.86271 136.686975,312.42573 31.22684,59.91614 62.52281,120.41367 103.62666,174.29512 19.91371,26.18039 48.4326,49.5852 82.86984,50.06932 39.09289,1.9097 72.03974,-23.54853 98.75297,-49.15697 56.47008,-55.54402 104.89652,-118.55812 152.93432,-181.34804 63.81203,-85.60097 125.85562,-172.99592 177.5796,-266.5492 18.38832,-35.6672 39.448,-74.37334 33.84181,-115.93734 C 794.79962,238.33294 767.37203,210.92237 735.7307,198.5036 684.02907,177.7417 628.45095,169.44466 573.80547,160.24611 456.20818,142.65119 337.56665,131.68782 218.72578,127.672 c -15.56731,-0.42907 -31.14079,-0.65962 -46.7142,-0.60785 z"
     id="path86"
     inkscape:connector-curvature="0"
     transform="scale(0.26458333)" />
  <path
     style="fill:url(#linearGradient2342);fill-opacity:0;stroke:#aa4e3a;stroke-width:1.34163177;stroke-miterlimit:4;stroke-dasharray:none;stroke-opacity:0"
     d="m 172.01158,127.06415 c -43.20724,0.9885 -88.005581,0.21187 -128.949955,15.96177 -33.2927538,12.73867 -56.798009,46.10709 -57.496435,81.75876 -1.051884,43.01464 14.08023344,84.23134 27.236835,124.55908 38.152999,107.17976 85.580576,210.86271 136.686975,312.42573 31.22684,59.91614 62.52281,120.41367 103.62666,174.29512 19.91371,26.18039 48.4326,49.5852 82.86984,50.06932 39.09289,1.9097 72.03974,-23.54853 98.75297,-49.15697 56.47008,-55.54402 104.89652,-118.55812 152.93432,-181.34804 63.81203,-85.60097 125.85562,-172.99592 177.5796,-266.5492 18.38832,-35.6672 39.448,-74.37334 33.84181,-115.93734 C 794.79962,238.33294 767.37203,210.92237 735.7307,198.5036 684.02907,177.7417 628.45095,169.44466 573.80547,160.24611 456.20818,142.65119 337.56665,131.68782 218.72578,127.672 c -15.56731,-0.42907 -31.14079,-0.65962 -46.7142,-0.60785 z"
     id="path88"
     inkscape:connector-curvature="0"
     transform="scale(0.26458333)" />
</svg>
